<svg xmlns="http://www.w3.org/2000/svg" viewBox="0 0 900 1200" preserveAspectRatio="xMidYMid slice">
  <defs>
    <radialGradient id="halo" cx="35%" cy="22%" r="44%">
      <stop offset="0" stop-color="#6f5df5" stop-opacity=".45"/>
      <stop offset=".56" stop-color="#6f5df5" stop-opacity=".08"/>
      <stop offset="1" stop-color="#130c2a" stop-opacity="0"/>
    </radialGradient>
    <radialGradient id="glow" cx="78%" cy="70%" r="42%">
      <stop offset="0" stop-color="#b45cff" stop-opacity=".32"/>
      <stop offset=".58" stop-color="#7b4dff" stop-opacity=".08"/>
      <stop offset="1" stop-color="#130c2a" stop-opacity="0"/>
    </radialGradient>
    <linearGradient id="rank" x1="0" x2="1" y1="0" y2="1">
      <stop offset="0" stop-color="#f5f1ff" stop-opacity=".28"/>
      <stop offset="1" stop-color="#9b8cff" stop-opacity=".08"/>
    </linearGradient>
    <filter id="blur" x="-20%" y="-20%" width="140%" height="140%">
      <feGaussianBlur stdDeviation="18"/>
    </filter>
  </defs>
  <rect width="900" height="1200" fill="#130c2a"/>
  <rect width="900" height="1200" fill="url(#halo)"/>
  <rect width="900" height="1200" fill="url(#glow)"/>
  <g opacity=".22" stroke="#8c78ff" stroke-width="1">
    <path d="M0 0 900 1200"/>
    <path d="M900 0 0 1200"/>
    <path d="M120 0 900 1040"/>
    <path d="M0 190 760 1200"/>
  </g>
  <g filter="url(#blur)" opacity=".62">
    <rect x="128" y="530" width="640" height="112" rx="28" fill="url(#rank)"/>
    <rect x="128" y="675" width="560" height="90" rx="24" fill="url(#rank)"/>
    <rect x="128" y="794" width="458" height="74" rx="22" fill="url(#rank)"/>
  </g>
  <g opacity=".4">
    <rect x="150" y="548" width="575" height="88" rx="24" fill="#f2efff" opacity=".13"/>
    <rect x="150" y="684" width="496" height="72" rx="21" fill="#f2efff" opacity=".1"/>
    <rect x="150" y="804" width="402" height="58" rx="18" fill="#f2efff" opacity=".08"/>
    <rect x="268" y="574" width="265" height="24" rx="10" fill="#f2efff" opacity=".28"/>
    <rect x="268" y="607" width="185" height="16" rx="8" fill="#f2efff" opacity=".18"/>
    <rect x="268" y="704" width="215" height="20" rx="9" fill="#f2efff" opacity=".2"/>
    <rect x="268" y="732" width="148" height="14" rx="7" fill="#f2efff" opacity=".14"/>
    <rect x="268" y="821" width="176" height="17" rx="8" fill="#f2efff" opacity=".16"/>
  </g>
</svg>
