<svg xmlns="http://www.w3.org/2000/svg" viewBox="0 0 512 512" role="img" aria-label="Rankly">
  <rect width="512" height="512" rx="96" fill="#5748bf"/>
  <rect x="58" y="77" width="396" height="100" rx="22" fill="#ece8ff"/>
  <rect x="58" y="195" width="396" height="78" rx="17" fill="#8379d6"/>
  <rect x="58" y="291" width="396" height="68" rx="16" fill="#7469cb"/>
  <rect x="58" y="376" width="340" height="58" rx="15" fill="#675ac1"/>
  <g font-family="Inter, Arial, sans-serif" font-weight="800" text-anchor="middle">
    <text x="124" y="148" font-size="56" fill="#5748bf">1</text>
    <text x="124" y="248" font-size="42" fill="#ddd8ff">2</text>
    <text x="118" y="337" font-size="32" fill="#c9c2ff">3</text>
    <text x="116" y="417" font-size="27" fill="#aaa1ef">4</text>
  </g>
  <g fill="#c6c0ee">
    <rect x="150" y="97" width="220" height="27" rx="9"/>
    <rect x="150" y="134" width="160" height="21" rx="8"/>
    <rect x="150" y="206" width="200" height="23" rx="8"/>
    <rect x="150" y="239" width="140" height="17" rx="7"/>
    <rect x="150" y="302" width="170" height="19" rx="7"/>
    <rect x="150" y="333" width="120" height="15" rx="6"/>
    <rect x="150" y="386" width="140" height="17" rx="7"/>
    <rect x="150" y="411" width="100" height="13" rx="6"/>
  </g>
</svg>
